<svg id="图层_3" data-name="图层 3" xmlns="http://www.w3.org/2000/svg" viewBox="0 0 200 200"><defs><style>.cls-1,.cls-3{fill:none;stroke-width:9px;}.cls-1{stroke:#ff9859;stroke-linecap:round;stroke-miterlimit:10;}.cls-2{fill:#ff985a;}.cls-3{stroke:#7c5546;stroke-linejoin:round;}</style></defs><line class="cls-1" x1="90.82" y1="111.57" x2="54.9" y2="147.5"/><circle class="cls-2" cx="142.61" cy="145.2" r="8.53"/><path class="cls-1" d="M103.25,124.51l.56-.56a12,12,0,0,0,0-17l-1-1a4.27,4.27,0,0,0,6,0l7-7.09"/><path class="cls-1" d="M103.42,86.4l-7.09,7a4.27,4.27,0,0,0,0,6l-.8-.81a12,12,0,0,0-17,0l-.57.56"/><path class="cls-3" d="M158.16,129.65a22,22,0,0,0-17.81-6.31L115.91,98.9,137.68,77a4.26,4.26,0,0,1,2.71-1.25l11.49-.85L168.7,47.73a3,3,0,0,0-.43-3.7l-10-10a3,3,0,0,0-3.7-.43L127.45,50.43l-.85,11.5a4.3,4.3,0,0,1-1.25,2.71L103.42,86.4,91.69,74.68A31.33,31.33,0,0,0,51.31,34.77L70.68,54.14,69.21,71.49,51.86,73,32.63,53.72a31.34,31.34,0,0,0,39.85,40L78,99.23,40.59,136.62a12,12,0,0,0,0,17l8.3,8.31a12,12,0,0,0,17,0l37.39-37.39,17.6,17.6a22,22,0,1,0,37.31-12.46Z"/></svg>